<!-- Generator: Adobe Illustrator 19.0.0, SVG Export Plug-In  -->
<svg version="1.1"
	 xmlns="http://www.w3.org/2000/svg" xmlns:xlink="http://www.w3.org/1999/xlink" xmlns:a="http://ns.adobe.com/AdobeSVGViewerExtensions/3.0/"
	 x="0px" y="0px" width="302.9px" height="73.3px" viewBox="0 0 302.9 73.3" style="enable-background:new 0 0 302.9 73.3;"
	 xml:space="preserve">
<style type="text/css">
	.st0{fill:url(#SVGID_1_);}
	.st1{fill:#8A8A8A;}
	.st2{fill:url(#SVGID_2_);}
	.st3{fill:url(#SVGID_3_);}
	.st4{fill:url(#SVGID_4_);}
</style>
<defs>
</defs>
<g>
	<radialGradient id="SVGID_1_" cx="79.6481" cy="48.0524" r="59.0747" gradientUnits="userSpaceOnUse">
		<stop  offset="0" style="stop-color:#1E95D4"/>
		<stop  offset="1" style="stop-color:#1D2A73"/>
	</radialGradient>
	<path class="st0" d="M18,32.7h18.4l1.7-9.8H8.6L0,71.6h30.3l1.7-9.9H12.9l1.7-10h17.5l1.8-9.8H16.4L18,32.7z M58,41.3L49.9,54
		l-4.1-12.7H35.1l11,32H47l20.8-32H58z M83.2,39.9c-5,0-9.2,1.7-12.7,5.2c-3.5,3.5-5.2,7.7-5.2,12.7c0,4.5,1.5,8.2,4.4,11
		C72.5,71.6,76.3,73,81,73c1.9,0,3.9-0.2,5.8-0.7c1.9-0.5,3.9-1.2,5.8-2.1l1.3-8c-2.2,1-4.2,1.8-6.1,2.3c-1.8,0.5-3.5,0.8-5.1,0.8
		c-2.5,0-4.4-0.6-5.8-1.8c-1.3-1.2-2-2.9-2-5.2v-0.5h21.1l0.6-1.1c0-0.5,0.1-0.9,0.1-1.4c0-0.4,0-1,0-1.5c0-4.2-1.2-7.6-3.7-10.1
		C90.7,41.2,87.4,39.9,83.2,39.9z M88.7,52.9c0,0.2,0,0.4-0.1,0.6H75.9c0.6-2,1.5-3.6,2.9-4.7c1.4-1.2,2.9-1.8,4.5-1.8
		c1.6,0,2.9,0.5,3.9,1.5c1,1,1.5,2.3,1.5,3.8C88.8,52.5,88.7,52.7,88.7,52.9z M123.6,40.4c-1.9,0-3.8,0.4-5.5,1.3
		c-1.7,0.9-3.4,2.3-5.1,4.1l0.8-4.5h-10.3l-5.3,30.3h10.5l2.7-14.9c0.4-2.4,1.3-4.3,2.7-5.8c1.4-1.4,3-2.2,4.7-2.2
		c0.9,0,1.6,0.3,2.2,0.8c0.5,0.5,0.8,1.3,0.8,2.2c0,0.6-0.1,1.4-0.2,2.4c0,0.1,0,0.2,0,0.2l-3.1,17.2h10.5l3.6-20.3
		c0-0.3,0.1-0.7,0.1-1.1c0-0.4,0.1-0.8,0.1-1.1c0-2.6-0.8-4.7-2.5-6.3C128.5,41.2,126.3,40.4,123.6,40.4z M148.8,59.5l1.8-10.5h7.3
		l1.4-7.7H152l2-11.4L143.1,32l-1.6,9.3h-5.9l-1.3,7.7h5.8l-2,11.4c-0.2,1.1-0.3,1.9-0.4,2.6c-0.1,0.6-0.1,1.2-0.1,1.6
		c0,2.4,0.8,4.3,2.4,5.7c1.6,1.4,3.9,2.1,6.7,2.1c1.2,0,2.5-0.1,3.8-0.4c1.3-0.3,2.7-0.6,4.3-1.2l1.3-7.5c-1.2,0.4-2.2,0.7-2.9,0.9
		c-0.7,0.2-1.3,0.3-1.9,0.3c-0.9,0-1.6-0.2-2-0.7c-0.4-0.5-0.7-1.2-0.7-2.2c0-0.4,0-0.8,0-1.1C148.7,60,148.7,59.7,148.8,59.5z"/>
</g>
<g>
	<path class="st1" d="M245.1,0.4l11.2,9.7h-8.4l-7.2-6l-7.6,6h-8.3l11.5-9.7H245.1z M250.2,27.4l-1-3.7h5.2l2,7.5h-5.2l-0.8-3l0.8,3
		H226v-3.2l3.7-5.9h-3.5v-3.8h30.2l0,3.8l-20.2,0l-3.2,5.4H250.2z M256.7,15.7l-30.5,0V12h30.5V15.7z"/>
	<path class="st1" d="M266.5,2.9l-2.8,6.6l-4.8,0l4-9.2h7.2l3.6,9H269L266.5,2.9z M259.4,18h13.7v9.2l0,4l-13.8,0V18z M273.4,11.6
		l0,3.8l-13.8,0v-3.8H273.4z M268.6,21.5H264v6.2h4.6V21.5z M274.2,22.4h9.9l0,3.5l-9.9,0V22.4z M279.2,0h5.1l-0.6,1.4h5.4v10.7
		l-3.7,3.5h-3.8v-3.3h3V4.9h-5.7v11.8h10.2V27l-4.5,3.9h-6.2v-3.5h6.2v-7.2h-10.2V1.4h3.9L279.2,0z M281.9,6c0.4,0,0.8,0.1,1.3,0.4
		c0.4,0.2,0.8,0.5,1,1c0.2,0.4,0.4,0.9,0.4,1.3c0,0.5-0.1,0.9-0.4,1.3c-0.2,0.4-0.5,0.7-0.9,0.9c-0.4,0.2-0.8,0.3-1.3,0.3
		c-0.5,0-0.9-0.1-1.3-0.3c-0.4-0.2-0.7-0.6-1-1c-0.2-0.4-0.4-0.8-0.4-1.3s0.1-0.9,0.4-1.3c0.2-0.4,0.6-0.7,1-1S281.5,6,281.9,6z"/>
</g>
<g>
	<radialGradient id="SVGID_2_" cx="230.913" cy="51.5634" r="54.8287" gradientUnits="userSpaceOnUse">
		<stop  offset="0" style="stop-color:#90BC27"/>
		<stop  offset="1" style="stop-color:#0C6F38"/>
	</radialGradient>
	<path class="st2" d="M197,27.2c-2.2-1.5-4.7-2.6-7.7-3.3c-3-0.7-6.8-1.1-11.3-1.1h-10.1L165.1,38c2,0.5,4.6,0.7,7.7,0.3
		c0,0,2.9-0.5,8.9,3.8c0,0,2.1,1.6,5.1-1.1c0,0,5.3-5.2,8-5.1c0,0,1.8,0,2.7,2.2c0,0,2,0.3,2.9,0.6c0,0-6.2,1.5-5.9,8.9
		c0,0,0.7,10.6-10.6,14.9c0,0-1.9,0.4-2.5,3.8c0,0-0.4,1.9-1.5,4.8c2.2-0.3,4.2-0.6,6-1.1c3.8-1,7.1-2.6,10-4.8
		c3.2-2.4,5.7-5.4,7.4-8.9c1.7-3.5,2.6-7.2,2.6-11.3c0-3.8-0.8-7.2-2.3-10.2C202.1,31.9,199.9,29.3,197,27.2z M185.1,41.1
		c-1.5,0.6-7.5-3-7.5-3c-2.2-1.2-5.2-0.6-5.2-0.6c-3.2,0.1,0.5-1.7,0.5-1.7c-4-2.2,0.1-2.4,0.1-2.4c-3.7-3.2-0.1-2.6-0.1-2.6
		c-2.7-3.9,1.3-2.2,1.3-2.2c-0.9-1.6-0.3-3.4-0.3-3.4c0.8-2.6,1.4-0.8,1.4-0.8c0.9,7.1,9.3,11.9,9.3,11.9
		C188,39.1,185.1,41.1,185.1,41.1z M164.4,42.1l-0.3,1.5c0.3-0.3,0.8-0.6,1.8-1.1C165.9,42.6,165.3,42.4,164.4,42.1z M299.2,43.6
		c-2.5-2.5-5.8-3.7-10-3.7c-5,0-9.2,1.7-12.7,5.2c-3.5,3.5-5.2,7.7-5.2,12.7c0,4.5,1.5,8.2,4.4,11c2.9,2.8,6.7,4.2,11.4,4.2
		c1.9,0,3.9-0.2,5.8-0.7c1.9-0.5,3.9-1.2,5.8-2.1l1.3-8c-2.2,1-4.2,1.8-6.1,2.3c-1.8,0.5-3.5,0.8-5.1,0.8c-2.5,0-4.4-0.6-5.8-1.8
		c-1.3-1.2-2-2.9-2-5.2v-0.5h21.1l0.6-1.1c0-0.5,0.1-0.9,0.1-1.4c0-0.4,0-1,0-1.5C302.9,49.5,301.7,46.1,299.2,43.6z M294.8,52.9
		c0,0.2,0,0.4-0.1,0.6h-12.8c0.6-2,1.5-3.6,2.9-4.7c1.4-1.2,2.9-1.8,4.5-1.8c1.6,0,2.9,0.5,3.9,1.5c1,1,1.5,2.3,1.5,3.8
		C294.8,52.5,294.8,52.7,294.8,52.9z M178.2,54c0,0-5,2.2-2.1-1.5c0,0-4.6,2.8-2.2-1.3c0,0-5.4,2-1.6-2c0,0-6.1,1.4-2.3-1.8
		c0,0-7.6,0-2.3-2.2c0,0-3.2-0.1-3.8-0.8l-4.8,27.2h4.4c0.2-0.2,0.5-0.5,0.9-0.8c0,0,13.4-6.4,13.2-9.8c0,0,0.5-3.8,2.2-5
		C179.8,56,175.9,58.4,178.2,54z M264,41.3L255.9,54l-4.1-12.7h-10.7l11,32h0.9l20.8-32H264z M195.8,38.9c0.4-0.9-0.6-0.8-0.6-0.8
		C194.8,39.1,195.8,38.9,195.8,38.9z M224.9,39.8c-5.2,0-9.5,1.7-13,5.2c-3.5,3.5-5.2,7.7-5.2,12.8c0,4.5,1.5,8.2,4.4,11
		c2.9,2.8,6.8,4.2,11.6,4.2c5,0,9.2-1.7,12.6-5.2c3.4-3.5,5.2-7.8,5.2-12.9c0-4.4-1.5-8-4.4-10.8C233.2,41.2,229.4,39.8,224.9,39.8z
		 M227.6,62.1c-1.3,1.9-2.9,2.9-4.8,2.9c-1.5,0-2.8-0.7-3.8-2c-1-1.3-1.5-3.1-1.5-5.2c0-2.8,0.7-5.1,2-7.1c1.4-1.9,3-2.9,4.8-2.9
		c1.5,0,2.8,0.7,3.8,2c1,1.3,1.4,3,1.4,5.2C229.6,57.8,228.9,60.2,227.6,62.1z"/>
</g>
</svg>
