<!-- Generator: Adobe Illustrator 19.0.0, SVG Export Plug-In  -->
<svg version="1.1"
	 xmlns="http://www.w3.org/2000/svg" xmlns:xlink="http://www.w3.org/1999/xlink" xmlns:a="http://ns.adobe.com/AdobeSVGViewerExtensions/3.0/"
	 x="0px" y="0px" width="131.7px" height="211.7px" viewBox="0 0 131.7 211.7" style="enable-background:new 0 0 131.7 211.7;"
	 xml:space="preserve">
<style type="text/css">
	.st0{fill:#00AF41;}
	.st1{fill:#404041;}
	.st2{fill:#FFFFFF;}
	.st3{fill:#58595B;}
	.st4{opacity:0.21;}
	.st5{fill:#F5CFB2;}
	.st6{fill:#714F9F;}
	.st7{opacity:0.5;}
	.st8{opacity:0.5;fill:#714F9F;}
	.st9{opacity:0.5;fill:#58595B;}
	.st10{fill:#A1D5EF;}
	.st11{opacity:0.51;fill:#231F20;}
</style>
<defs>
</defs>
<g>
	<g>
		<path class="st0" d="M100.4,0H7C3.1,0,0,3.1,0,7v48.6c0,3.9,3.1,7,7,7h93.4c3.9,0,7-3.1,7-7V7C107.4,3.1,104.3,0,100.4,0z"/>
		<rect y="7.3" class="st1" width="107.4" height="9.2"/>
		<path class="st2" d="M63.2,21.6H8.8c-0.2,0-0.4,0.2-0.4,0.4v10.2c0,0.2,0.2,0.4,0.4,0.4h54.4c0.2,0,0.4-0.2,0.4-0.4V22
			C63.6,21.8,63.4,21.6,63.2,21.6z"/>
		<g>
			<rect x="9.9" y="53" class="st3" width="42.8" height="2.5"/>
			<rect x="56.9" y="53" class="st1" width="6.7" height="2.5"/>
			<rect x="67" y="53" class="st3" width="30.5" height="2.5"/>
			<rect x="67" y="45.7" class="st3" width="30.5" height="2.5"/>
			<rect x="67" y="38.4" class="st3" width="30.5" height="2.5"/>
		</g>
	</g>
	<g class="st4">
		<path class="st1" d="M89.8,1.9c-4.2,4.6-2.9,13.7,1.6,17.9c7.9,7.3,12.9,18.5,16,27.8V6.8c0-3.8-3-6.8-6.8-6.8h-8.9
			C91.6,0.1,90.2,1.4,89.8,1.9z"/>
		<path class="st1" d="M81.3,49.2c-1.8-4.9-6.5-8.2-11.7-8.2c-1.4,0-2.9,0.3-4.2,0.8c-6.4,2.3-9.8,9.5-7.4,15.9
			c0.6,1.6,1.4,3.3,2.2,4.9h30.8C85.9,57.2,82.4,52.4,81.3,49.2z"/>
	</g>
	<path class="st5" d="M131.2,51.9c-2.3-13.5-11.2-34.3-26-48c-3.7-3.4-9.5-3.2-12.9,0.5c-3.4,3.7-3.2,9.5,0.5,12.9
		c9.2,8.4,14.6,21.8,17.8,32.4c-1,11-5.5,16.7-17.5,18.4c-5.7-5.7-12.1-13-14-18.1c-1.9-5.3-7.8-8.1-13.1-6.1
		C60.8,45.8,58,51.7,60,57c3.3,9,11.9,18.8,18.6,25.5c4.3,7.3,7.2,13.3,9.6,22.2v89.6c0,7.5,6.1,13.7,13.7,13.7
		c7.5,0,13.7-6.1,13.7-13.7V93.9c1-0.9,2-1.7,3-2.7C126.7,83.8,133.7,67.4,131.2,51.9z"/>
	<rect x="80.6" y="141.5" class="st6" width="42.4" height="70.1"/>
	<g>
		<g class="st7">
			<g>
				<path class="st6" d="M97.8,211.7h2v-51.3h-2V211.7z M86.1,211.7h2v-51.3h-2V211.7z M92,211.7h2v-51.3h-2V211.7z M115.4,160.4
					v51.3h2v-51.3H115.4z M109.5,211.7h2v-51.3h-2V211.7z M103.7,211.7h2v-51.3h-2V211.7z"/>
			</g>
		</g>
		<path class="st6" d="M125.2,152.5H78.8c-0.8,0-1.5-0.7-1.5-1.5v-9.5c0-0.8,0.7-1.5,1.5-1.5h46.4c0.8,0,1.5,0.7,1.5,1.5v9.5
			C126.6,151.8,126,152.5,125.2,152.5z"/>
		<rect x="80.6" y="152.5" class="st8" width="42.4" height="2.3"/>
		<polygon class="st8" points="80.7,141.7 80.7,150.9 82.6,148.2 		"/>
		<polygon class="st8" points="84.8,141.7 84.8,150.9 86.7,148.2 		"/>
		<polygon class="st8" points="88.9,141.7 88.9,150.9 90.7,148.2 		"/>
		<polygon class="st8" points="92.9,141.7 92.9,150.9 94.8,148.2 		"/>
		<polygon class="st8" points="97,141.7 97,150.9 98.9,148.2 		"/>
		<polygon class="st8" points="101.1,141.7 101.1,150.9 102.9,148.2 		"/>
		<polygon class="st8" points="105.1,141.7 105.1,150.9 107,148.2 		"/>
		<polygon class="st8" points="109.2,141.7 109.2,150.9 111,148.2 		"/>
		<polygon class="st8" points="113.2,141.7 113.2,150.9 115.1,148.2 		"/>
		<polygon class="st8" points="117.3,141.7 117.3,150.9 119.2,148.2 		"/>
		<polygon class="st8" points="121.4,141.7 121.4,150.9 123.2,148.2 		"/>
	</g>
	<g>
		<path class="st1" d="M119.8,116.4H84.1c-0.7,0-1.2,0.6-1.2,1.2v8.6c0,0.7,0.5,1.2,1.2,1.2h35.7c0.7,0,1.2-0.6,1.2-1.2v-8.6
			C121.1,116.9,120.5,116.4,119.8,116.4z"/>
		<rect x="88.2" y="127.4" class="st9" width="27.3" height="2.1"/>
		<polygon class="st3" points="86.8,126.2 86.5,126.2 86.2,117.6 87.1,117.6 		"/>
		<polygon class="st3" points="88.7,117.6 89,117.6 89.3,126.2 88.4,126.2 		"/>
		<polygon class="st3" points="91.3,126.2 91,126.2 90.7,117.6 91.6,117.6 		"/>
		<polygon class="st3" points="93.2,117.6 93.5,117.6 93.8,126.2 92.9,126.2 		"/>
		<polygon class="st3" points="95.8,126.2 95.5,126.2 95.2,117.6 96.1,117.6 		"/>
		<polygon class="st3" points="97.7,117.6 98,117.6 98.3,126.2 97.4,126.2 		"/>
		<polygon class="st3" points="100.3,126.2 100,126.2 99.7,117.6 100.6,117.6 		"/>
		<polygon class="st3" points="102.2,117.6 102.5,117.6 102.8,126.2 101.9,126.2 		"/>
		<polygon class="st3" points="104.8,126.2 104.5,126.2 104.2,117.6 105.1,117.6 		"/>
		<polygon class="st3" points="106.7,117.6 107,117.6 107.3,126.2 106.4,126.2 		"/>
		<polygon class="st3" points="109.3,126.2 109,126.2 108.7,117.6 109.6,117.6 		"/>
		<polygon class="st3" points="111.2,117.6 111.5,117.6 111.8,126.2 110.9,126.2 		"/>
		<polygon class="st3" points="113.8,126.2 113.5,126.2 113.2,117.6 114.1,117.6 		"/>
		<polygon class="st3" points="115.7,117.6 116,117.6 116.3,126.2 115.4,126.2 		"/>
		<polygon class="st3" points="118.3,126.2 118,126.2 117.7,117.6 118.6,117.6 		"/>
		<g>
			<g>
				<path class="st1" d="M123.6,112.7h-3.9c-0.3,0-0.5,0.2-0.5,0.5v17.5c0,0.3,0.2,0.5,0.5,0.5h3.9c0.3,0,0.5-0.2,0.5-0.5v-17.5
					C124,112.9,123.8,112.7,123.6,112.7z"/>
			</g>
		</g>
		<path class="st10" d="M123.8,128.7h0.2c0.1,0,0.2-0.1,0.2-0.2v-13c0-0.1-0.1-0.2-0.2-0.2h-0.2c-0.1,0-0.2,0.1-0.2,0.2v13
			C123.5,128.6,123.6,128.7,123.8,128.7z"/>
		<rect x="118.3" y="116.4" class="st11" width="0.9" height="11.1"/>
	</g>
</g>
</svg>
