<!-- Generator: Adobe Illustrator 19.0.0, SVG Export Plug-In  -->
<svg version="1.1"
	 xmlns="http://www.w3.org/2000/svg" xmlns:xlink="http://www.w3.org/1999/xlink" xmlns:a="http://ns.adobe.com/AdobeSVGViewerExtensions/3.0/"
	 x="0px" y="0px" width="505.8px" height="220.6px" viewBox="0 0 505.8 220.6" style="enable-background:new 0 0 505.8 220.6;"
	 xml:space="preserve">
<style type="text/css">
	.st0{fill:#333E48;}
	.st1{fill:#00AD68;}
	.st2{clip-path:url(#SVGID_2_);}
	.st3{fill:#814C3A;}
	.st4{fill:#003B71;}
	.st5{fill:#2E2A25;}
	.st6{fill:#FF8189;}
	.st7{fill:#954E0F;}
	.st8{fill:#008996;}
	.st9{fill:#00A19B;}
	.st10{fill:#1E252B;}
	.st11{fill:#002B49;}
	.st12{opacity:6.000000e-02;fill:#FFFFFF;}
	.st13{opacity:0.23;fill:#FFFFFF;}
	.st14{fill:#F6B221;}
	.st15{clip-path:url(#SVGID_4_);}
	.st16{fill:#F5BF9A;}
	.st17{fill:#007934;}
	.st18{fill:#4E9D2D;}
	.st19{fill:#00563F;}
	.st20{fill:#262729;}
	.st21{fill:#FF5959;}
	.st22{fill:#4C3D2A;}
	.st23{fill:#A03123;}
	.st24{fill:#D68CC7;}
	.st25{clip-path:url(#SVGID_6_);}
	.st26{fill:#E1854F;}
	.st27{fill:#AB2C29;}
	.st28{fill:#392F2C;}
	.st29{fill:#FFFFFF;}
	.st30{fill:#0055B8;}
	.st31{fill:#26CAD3;}
	.st32{clip-path:url(#SVGID_8_);}
	.st33{clip-path:url(#SVGID_10_);}
	.st34{clip-path:url(#SVGID_12_);}
</style>
<defs>
</defs>
<g>
	<path class="st0" d="M288.7,137.6h-54.2c-8.8,0-15.9-7.1-15.9-15.9V15.9c0-8.8,7.1-15.9,15.9-15.9h54.2c8.8,0,15.9,7.1,15.9,15.9
		v105.7C304.6,130.4,297.5,137.6,288.7,137.6z"/>
	<rect x="229.3" y="14.4" class="st1" width="64.5" height="101.9"/>
	<g>
		<defs>
			<rect id="SVGID_1_" x="229.3" y="14.4" width="64.5" height="101.9"/>
		</defs>
		<clipPath id="SVGID_2_">
			<use xlink:href="#SVGID_1_"  style="overflow:visible;"/>
		</clipPath>
		<g class="st2">
			<g>
				<path class="st3" d="M294.8,208.9c-2.8,0-5.2-2.1-5.6-4.9l-10.5-77.2l-4.3-2.6c-2.7-1.6-3.6-5.1-2-7.8c1.6-2.7,5.1-3.6,7.8-2
					l6.7,4c1.5,0.9,2.5,2.4,2.7,4.1l10.9,80c0.4,3.1-1.7,6-4.9,6.4C295.3,208.9,295,208.9,294.8,208.9z"/>
				<path class="st3" d="M229.4,208.9c-0.3,0-0.5,0-0.8-0.1c-3.1-0.4-5.3-3.3-4.9-6.4l10.9-80c0.2-1.7,1.2-3.2,2.7-4.1l6.7-4
					c2.7-1.6,6.2-0.7,7.8,2c1.6,2.7,0.7,6.2-2,7.8l-4.3,2.6L235,204C234.6,206.8,232.2,208.9,229.4,208.9z"/>
			</g>
			<g>
				<path class="st4" d="M271.2,111.6h-18.3c-8.7,0-15.4,7.1-14.8,15.8l1.6,49.6l0.8,9.9c0.6,8.7,7.1,17.5,15.8,17.5h11.5
					c8.7,0,15.2-8.8,15.8-17.5l0.8-9.9l1.6-49.6C286.6,118.8,280,111.6,271.2,111.6z"/>
			</g>
			<g>
				<circle class="st5" cx="262.1" cy="65.5" r="29.5"/>
				<path class="st3" d="M284,87c-1.2,8.7-9.3,15.7-18,15.7h-8.5c-8.7,0-16.8-7.1-17.8-15.8l-2.9-23.2C235.8,55.1,242,48,250.7,48
					h22.7c8.7,0,14.9,7.1,13.8,15.7L284,87z"/>
				<path class="st5" d="M282.6,74.2c0,3.6,2.9,6.5,6.5,6.5V54.5L288,53l-5.3,1.5V74.2z"/>
				<path class="st5" d="M241.5,74.2c0,3.6-2.9,6.5-6.5,6.5V54.5l1.2-2.2l5.3,2.2V74.2z"/>
				<path class="st6" d="M260.5,75.6c0-0.9,0.7-1.6,1.6-1.6s1.6,0.7,1.6,1.6v5.1c0,0.9-0.7,1.6-1.6,1.6s-1.6-0.7-1.6-1.6V75.6z"/>
				<path class="st3" d="M240.6,70.4c-3.9,0-7.1,3.2-7.1,7.1c0,3.9,3.2,7.1,7.1,7.1V70.4z"/>
				<path class="st3" d="M283.6,70.4c3.9,0,7.1,3.2,7.1,7.1c0,3.9-3.2,7.1-7.1,7.1V70.4z"/>
				<circle class="st5" cx="251.4" cy="75.6" r="1.7"/>
				<circle class="st5" cx="272.8" cy="75.6" r="1.7"/>
				<g>
					<path class="st5" d="M253.1,86c0,5,4,9,9,9c5,0,9-4,9-9H253.1z"/>
					<path class="st6" d="M262.1,90.2c-2.3,0-4.4,1-5.8,2.6c1.6,1.4,3.6,2.2,5.8,2.2c2.2,0,4.3-0.8,5.8-2.2
						C266.5,91.2,264.4,90.2,262.1,90.2z"/>
				</g>
				<rect x="256.6" y="100.7" class="st3" width="10.9" height="10.9"/>
				<path class="st5" d="M289.3,56.2c-0.9,4-41.1,15-47.6,15.6c-5.3-3.1-6.9-6.3-6.9-6.3s-1.1-16.4,8.2-19.7
					C252.3,42.4,281.1,37.2,289.3,56.2z"/>
				<path class="st7" d="M286.4,54.5"/>
			</g>
			<path class="st8" d="M274.3,146.4c-5.8,0-10.5-4.7-10.5-10.5c0-0.6,0.5-1.2,1.2-1.2c0.6,0,1.2,0.5,1.2,1.2c0,4.5,3.7,8.2,8.2,8.2
				c4.5,0,8.2-3.7,8.2-8.2c0-0.6,0.5-1.2,1.2-1.2c0.6,0,1.2,0.5,1.2,1.2C284.9,141.6,280.1,146.4,274.3,146.4z"/>
			<path class="st8" d="M249.8,146.4c-5.8,0-10.5-4.7-10.5-10.5c0-0.6,0.5-1.2,1.2-1.2c0.6,0,1.2,0.5,1.2,1.2c0,4.5,3.7,8.2,8.2,8.2
				c4.5,0,8.2-3.7,8.2-8.2c0-0.6,0.5-1.2,1.2-1.2c0.6,0,1.2,0.5,1.2,1.2C260.4,141.6,255.6,146.4,249.8,146.4z"/>
			<polygon class="st9" points="291.8,220.6 284.4,177.1 239.7,177.1 232.4,220.6 			"/>
			<polygon class="st3" points="256.5,111.6 261.9,118.2 267.5,111.6 			"/>
			<circle class="st5" cx="240.5" cy="52.3" r="9.2"/>
			<circle class="st5" cx="249.7" cy="43.5" r="9.2"/>
			<circle class="st5" cx="283.7" cy="52.3" r="9.2"/>
			<circle class="st5" cx="274.5" cy="43.5" r="9.2"/>
			<circle class="st5" cx="262.1" cy="38.8" r="9.2"/>
		</g>
	</g>
	<circle class="st10" cx="261.6" cy="127.3" r="5.8"/>
	<path class="st10" d="M269,11.2h-14.8c-0.5,0-0.9-0.4-0.9-0.9c0-0.5,0.4-0.9,0.9-0.9H269c0.5,0,0.9,0.4,0.9,0.9
		C269.9,10.8,269.5,11.2,269,11.2z"/>
	<g>
		<circle class="st10" cx="261.6" cy="5.8" r="1.9"/>
		<circle class="st11" cx="261.6" cy="5.8" r="1.3"/>
		<circle class="st10" cx="261.6" cy="5.8" r="0.8"/>
		<circle class="st0" cx="261.6" cy="5.8" r="0.5"/>
		<circle class="st10" cx="261.6" cy="5.8" r="0.2"/>
		<path class="st12" d="M261.6,3.9c-1,0-1.9,0.8-1.9,1.9c0,0.8,0.5,1.4,1.1,1.7l1.9-3.3C262.4,4,262,3.9,261.6,3.9z"/>
	</g>
	<polygon class="st13" points="266.2,14.4 229.3,77.4 229.3,116.3 235.7,116.3 293.8,17.1 293.8,14.4 	"/>
	<polygon class="st13" points="262.6,116.3 276.2,116.3 293.8,86.1 293.8,63 	"/>
</g>
<g>
	<path class="st0" d="M146.9,137.6H92.8c-8.8,0-15.9-7.1-15.9-15.9V15.9C76.9,7.1,84,0,92.8,0h54.2c8.8,0,15.9,7.1,15.9,15.9v105.7
		C162.8,130.4,155.7,137.6,146.9,137.6z"/>
	<rect x="87.6" y="14.4" class="st14" width="64.5" height="101.9"/>
	<g>
		<defs>
			<rect id="SVGID_3_" x="87.6" y="14.4" width="64.5" height="101.9"/>
		</defs>
		<clipPath id="SVGID_4_">
			<use xlink:href="#SVGID_3_"  style="overflow:visible;"/>
		</clipPath>
		<g class="st15">
			<g>
				<path class="st16" d="M95.9,142.9l9.8,52.6c0.7,3.7,4.2,6.1,7.8,5.4c3.7-0.7,6.1-4.2,5.4-7.8l-9.8-52.6L95.9,142.9z"/>
				<path class="st17" d="M112.5,110.2l-15.3,2.8c-3.7,0.7-6.1,4.2-5.4,7.8l4.1,21.9l13.2-2.5l-2.9-15.3l8.7-1.6
					c3.7-0.7,6.1-4.2,5.4-7.8C119.6,112,116.1,109.5,112.5,110.2z"/>
			</g>
			<g>
				<path class="st16" d="M174.7,128.2l9.8,52.6c0.7,3.7-1.7,7.2-5.4,7.8c-3.7,0.7-7.2-1.7-7.8-5.4l-9.8-52.6L174.7,128.2z"/>
				<path class="st17" d="M147.5,103.7l15.3-2.8c3.7-0.7,7.2,1.7,7.8,5.4l4.1,21.9l-13.2,2.5l-2.9-15.3l-8.7,1.6
					c-3.7,0.7-7.2-1.7-7.8-5.4C141.4,107.9,143.8,104.4,147.5,103.7z"/>
			</g>
			<path class="st16" d="M152.9,77c1.6,8.5-4.1,16.7-12.6,18.3l-24.2,4.5c-8.5,1.6-16.7-4.1-18.3-12.6l-5.5-29.5
				c-1.6-8.5,4.1-16.7,12.6-18.3l24.2-4.5c8.5-1.6,16.7,4.1,18.3,12.6L152.9,77z"/>
			<path class="st18" d="M168.7,162.1c1.6,8.5-4.1,16.7-12.6,18.3l-24.2,4.5c-8.5,1.6-16.7-4.1-18.3-12.6l-8.5-45.6
				c-1.6-8.5,4.1-16.7,12.6-18.3l24.2-4.5c8.5-1.6,16.7,4.1,18.3,12.6L168.7,162.1z"/>
			<path class="st19" d="M118.9,108.2c1.1,6,6.9,10,12.9,8.9c6-1.1,10-6.9,8.9-12.9L118.9,108.2z"/>
			<path class="st16" d="M121.7,107.7c0.8,4.5,5.2,7.5,9.7,6.6c4.5-0.8,7.5-5.2,6.6-9.7L121.7,107.7z"/>
			<path class="st20" d="M136.8,26.7L86.6,36l3,16.3c0.8,4.5,5.2,7.5,9.7,6.6l50.1-9.3l-3-16.3C145.6,28.8,141.3,25.8,136.8,26.7z"
				/>
			<path class="st20" d="M86.1,53.3c-0.8-4.2,2-8.3,6.2-9.1c4.2-0.8,8.3,2,9.1,6.2l3.2,17.1c0.8,4.2-2,8.3-6.2,9.1
				c-4.2,0.8-8.3-2-9.1-6.2L86.1,53.3z"/>
			<path class="st20" d="M151.6,41.2c-0.8-4.2-4.8-7-9.1-6.2c-4.2,0.8-7,4.8-6.2,9.1l3.2,17.1c0.8,4.2,4.8,7,9.1,6.2
				c4.2-0.8,7-4.8,6.2-9.1L151.6,41.2z"/>
			<path class="st21" d="M120.7,71c-0.3-1.4,0.7-2.7,2-3c1.4-0.3,2.7,0.7,3,2l1,5.6c0.3,1.4-0.7,2.7-2,3c-1.4,0.3-2.7-0.7-3-2
				L120.7,71z"/>
			<path class="st16" d="M97.1,70.8c-3.8,0.7-6.4,4.4-5.7,8.2c0.7,3.8,4.4,6.4,8.2,5.7L97.1,70.8z"/>
			<path class="st16" d="M147.6,61.4c3.8-0.7,7.5,1.8,8.2,5.7c0.7,3.8-1.8,7.5-5.7,8.2L147.6,61.4z"/>
			<circle class="st22" cx="110.6" cy="71.7" r="2"/>
			<circle class="st22" cx="135.3" cy="67.1" r="2"/>
			<g>
				<path class="st22" d="M114.8,83.5c1.1,5.7,6.6,9.5,12.3,8.5c5.7-1.1,9.5-6.6,8.5-12.3L114.8,83.5z"/>
				<path class="st21" d="M126.1,86.4c-2.7,0.5-4.9,2.1-6.2,4.2c2.1,1.2,4.7,1.7,7.2,1.3c2.6-0.5,4.8-1.9,6.3-3.8
					C131.4,86.6,128.8,85.9,126.1,86.4z"/>
			</g>
			
				<rect x="123.4" y="95.4" transform="matrix(0.9831 -0.1828 0.1828 0.9831 -16.2602 25.2486)" class="st16" width="10.8" height="10.8"/>
			<g>
				<path class="st0" d="M100.6,68.2l0.7,3.9c0.9,5,5.7,8.2,10.7,7.3c5-0.9,8.3-5.7,7.3-10.7l-0.7-3.9L100.6,68.2z M117.7,69
					c0.8,4.1-1.9,8-6,8.7c-4.1,0.8-8-1.9-8.7-6l-0.4-2.2l14.7-2.7L117.7,69z"/>
				<path class="st0" d="M125.4,63.6l0.7,3.9c0.9,5,5.7,8.2,10.7,7.3c5-0.9,8.2-5.7,7.3-10.7l-0.7-3.9L125.4,63.6z M142.4,64.4
					c0.8,4.1-1.9,8-6,8.7c-4.1,0.8-8-1.9-8.7-6l-0.4-2.2l14.7-2.7L142.4,64.4z"/>
				
					<rect x="118.8" y="64.2" transform="matrix(0.9832 -0.1827 0.1827 0.9832 -9.8473 23.4255)" class="st23" width="6.8" height="2"/>
				
					<rect x="143.5" y="59.6" transform="matrix(0.9832 -0.1828 0.1828 0.9832 -8.5921 27.8674)" class="st23" width="6.8" height="2"/>
				
					<rect x="94.1" y="68.8" transform="matrix(-0.9832 0.1828 -0.1828 -0.9832 206.0477 120.4901)" class="st23" width="6.8" height="2"/>
			</g>
		</g>
	</g>
	<circle class="st10" cx="119.9" cy="127.3" r="5.8"/>
	<path class="st10" d="M127.3,11.2h-14.8c-0.5,0-0.9-0.4-0.9-0.9c0-0.5,0.4-0.9,0.9-0.9h14.8c0.5,0,0.9,0.4,0.9,0.9
		C128.2,10.8,127.8,11.2,127.3,11.2z"/>
	<g>
		<circle class="st10" cx="119.9" cy="5.8" r="1.9"/>
		<circle class="st11" cx="119.9" cy="5.8" r="1.3"/>
		<circle class="st10" cx="119.9" cy="5.8" r="0.8"/>
		<circle class="st0" cx="119.9" cy="5.8" r="0.5"/>
		<circle class="st10" cx="119.9" cy="5.8" r="0.2"/>
		<path class="st12" d="M119.9,3.9c-1,0-1.9,0.8-1.9,1.9c0,0.8,0.5,1.4,1.1,1.7l1.9-3.3C120.7,4,120.3,3.9,119.9,3.9z"/>
	</g>
	<polygon class="st13" points="124.5,14.4 87.6,77.4 87.6,116.3 94,116.3 152.1,17.1 152.1,14.4 	"/>
	<polygon class="st13" points="120.9,116.3 134.4,116.3 152.1,86.1 152.1,63 	"/>
</g>
<g>
	<path class="st0" d="M427.7,137.6h-54.2c-8.8,0-15.9-7.1-15.9-15.9V15.9c0-8.8,7.1-15.9,15.9-15.9h54.2c8.8,0,15.9,7.1,15.9,15.9
		v105.7C443.6,130.4,436.5,137.6,427.7,137.6z"/>
	<rect x="368.4" y="14.4" class="st24" width="64.5" height="101.9"/>
	<g>
		<defs>
			<rect id="SVGID_5_" x="368.4" y="14.4" width="64.5" height="101.9"/>
		</defs>
		<clipPath id="SVGID_6_">
			<use xlink:href="#SVGID_5_"  style="overflow:visible;"/>
		</clipPath>
		<g class="st25">
			<g>
				<path class="st26" d="M365.6,137.8l2.1,50.8c0.1,3.5,3.1,6.3,6.7,6.1c3.5-0.1,6.3-3.1,6.1-6.7l-2.1-50.8L365.6,137.8z"/>
				<path class="st27" d="M385.6,109.3l-14.8,0.6c-3.5,0.1-6.3,3.1-6.1,6.7l0.9,21.2l12.8-0.5l-0.6-14.8l8.4-0.4
					c3.5-0.1,6.3-3.1,6.1-6.7C392.1,111.9,389.1,109.2,385.6,109.3z"/>
			</g>
			<g>
				<path class="st26" d="M441.7,134.6l2.1,50.8c0.1,3.5-2.6,6.5-6.1,6.7c-3.5,0.1-6.5-2.6-6.7-6.1l-2.1-50.8L441.7,134.6z"/>
				<path class="st27" d="M419.4,107.9l14.8-0.6c3.5-0.1,6.5,2.6,6.7,6.1l0.9,21.2l-12.8,0.5l-0.6-14.8l-8.4,0.4
					c-3.5,0.1-6.5-2.6-6.7-6.1C413.1,111.1,415.9,108.1,419.4,107.9z"/>
			</g>
			<path class="st26" d="M428.1,83.5c0.3,8.2-6.1,15.2-14.3,15.5l-23.4,1c-8.2,0.3-15.2-6.1-15.5-14.3l-1.2-28.5
				c-0.3-8.2,6.1-15.2,14.3-15.5l23.4-1c8.2-0.3,15.2,6.1,15.5,14.3L428.1,83.5z"/>
			<path class="st21" d="M431.5,165.7c0.3,8.2-6.1,15.2-14.3,15.5l-23.4,1c-8.2,0.3-15.2-6.1-15.5-14.3l-1.9-44.1
				c-0.3-8.2,6.1-15.2,14.3-15.5l23.4-1c8.2-0.3,15.2,6.1,15.5,14.3L431.5,165.7z"/>
			<path class="st0" d="M391.9,108.3c0.2,5.8,5.1,10.3,11,10.1c5.8-0.2,10.3-5.1,10.1-11L391.9,108.3z"/>
			<path class="st26" d="M394.6,108.2c0.2,4.3,3.8,7.7,8.2,7.5c4.3-0.2,7.7-3.8,7.5-8.2L394.6,108.2z"/>
			<path class="st28" d="M415.6,34.2l-0.2-3.9l-38.2,1.6c-3.4,0.1-6.1,3-5.9,6.5l0.9,21.3l48.4-2c4.3-0.2,7.7-3.8,7.5-8.2l-0.7-15.7
				L415.6,34.2z"/>
			<path class="st28" d="M368.4,52.3c-0.2-4.1,3-7.5,7.1-7.7c4.1-0.2,7.5,3,7.7,7.1l0.7,16.5c0.2,4.1-3,7.5-7.1,7.7
				c-4.1,0.2-7.5-3-7.7-7.1L368.4,52.3z"/>
			<path class="st28" d="M431.7,49.7c-0.2-4.1-3.6-7.2-7.7-7.1c-4.1,0.2-7.2,3.6-7.1,7.7l0.7,16.5c0.2,4.1,3.6,7.2,7.7,7.1
				c4.1-0.2,7.2-3.6,7.1-7.7L431.7,49.7z"/>
			<path class="st21" d="M398.6,73.6c-0.1-1.3,1-2.5,2.3-2.5c1.3-0.1,2.5,1,2.5,2.3l0.2,5.4c0.1,1.3-1,2.5-2.3,2.5
				c-1.3,0.1-2.5-1-2.5-2.3L398.6,73.6z"/>
			<path class="st26" d="M376.4,70.2c-3.7,0.2-6.6,3.3-6.4,7c0.2,3.7,3.3,6.6,7,6.4L376.4,70.2z"/>
			<path class="st26" d="M425.2,68.2c3.7-0.2,6.8,2.7,7,6.4c0.2,3.7-2.7,6.8-6.4,7L425.2,68.2z"/>
			<circle class="st22" cx="389" cy="72.9" r="1.9"/>
			<circle class="st22" cx="412.9" cy="71.9" r="1.9"/>
			<g>
				<path class="st22" d="M391.4,84.5c0.2,5.5,4.9,9.8,10.5,9.6c5.5-0.2,9.8-4.9,9.6-10.5L391.4,84.5z"/>
				<path class="st21" d="M401.7,88.8c-2.6,0.1-4.9,1.3-6.4,3.2c1.8,1.4,4.1,2.3,6.6,2.2c2.5-0.1,4.7-1.1,6.4-2.7
					C406.6,89.7,404.2,88.7,401.7,88.8z"/>
			</g>
			
				<rect x="397.1" y="97.6" transform="matrix(0.9991 -4.194737e-02 4.194737e-02 0.9991 -3.9539 16.9631)" class="st26" width="10.3" height="10.3"/>
		</g>
	</g>
	<circle class="st10" cx="400.6" cy="127.3" r="5.8"/>
	<path class="st10" d="M408,11.2h-14.8c-0.5,0-0.9-0.4-0.9-0.9c0-0.5,0.4-0.9,0.9-0.9H408c0.5,0,0.9,0.4,0.9,0.9
		C408.9,10.8,408.5,11.2,408,11.2z"/>
	<g>
		<circle class="st10" cx="400.6" cy="5.8" r="1.9"/>
		<circle class="st11" cx="400.6" cy="5.8" r="1.3"/>
		<circle class="st10" cx="400.6" cy="5.8" r="0.8"/>
		<circle class="st0" cx="400.6" cy="5.8" r="0.5"/>
		<circle class="st10" cx="400.6" cy="5.8" r="0.2"/>
		<path class="st12" d="M400.6,3.9c-1,0-1.9,0.8-1.9,1.9c0,0.8,0.5,1.4,1.1,1.7l1.9-3.3C401.4,4,401.1,3.9,400.6,3.9z"/>
	</g>
	<polygon class="st13" points="405.2,14.4 368.4,77.4 368.4,116.3 374.8,116.3 432.9,17.1 432.9,14.4 	"/>
	<polygon class="st13" points="401.6,116.3 415.2,116.3 432.9,86.1 432.9,63 	"/>
</g>
<g>
	<path class="st29" d="M490.5,6.9h-49.3c-8.4,0-15.3,6.8-15.3,15.3v23.6c0,3.7,1.3,7.1,3.5,9.8c-0.7,3-2.2,6-5.3,7.6
		c3.9,0.8,8-0.6,11.6-3.1c1.7,0.7,3.5,1,5.5,1h49.3c8.4,0,15.3-6.8,15.3-15.3V22.2C505.8,13.7,498.9,6.9,490.5,6.9z"/>
	<g>
		<rect x="438.4" y="22.1" class="st30" width="54.7" height="1.5"/>
		<rect x="438.4" y="27" class="st30" width="54.7" height="1.5"/>
		<rect x="438.4" y="31.9" class="st30" width="54.7" height="1.5"/>
		<rect x="438.4" y="36.8" class="st30" width="54.7" height="1.5"/>
		<rect x="438.4" y="41.7" class="st30" width="54.7" height="1.5"/>
	</g>
</g>
<g>
	<path class="st29" d="M15.3,45h49.3c8.4,0,15.3,6.8,15.3,15.3v23.6c0,3.7-1.3,7.1-3.5,9.8c0.7,3,2.2,6,5.3,7.6
		c-3.9,0.8-8-0.6-11.6-3.1c-1.7,0.7-3.5,1-5.5,1H15.3C6.8,99.2,0,92.4,0,83.9V60.3C0,51.9,6.8,45,15.3,45z"/>
	<g>
		<rect x="12.7" y="60.2" class="st31" width="54.7" height="1.5"/>
		<rect x="12.7" y="65.1" class="st31" width="54.7" height="1.5"/>
		<rect x="12.7" y="70" class="st31" width="54.7" height="1.5"/>
		<rect x="12.7" y="74.9" class="st31" width="54.7" height="1.5"/>
		<rect x="12.7" y="79.8" class="st31" width="54.7" height="1.5"/>
	</g>
</g>
</svg>
